<svg width="29" height="32" viewBox="0 0 29 32" fill="none" xmlns="http://www.w3.org/2000/svg">
<path d="M17.2416 32C17.5336 32 17.6846 31.5977 17.5034 31.3619C16.4647 30.0104 16.0941 27.88 16.052 24.8839C17.3795 26.6192 19.4384 27.7333 21.75 27.7333C25.7541 27.7333 29 24.3904 29 20.2667C29 16.1429 25.7541 12.8 21.75 12.8C20.741 12.8 19.7801 13.0123 18.9072 13.3959C20.6356 12.0312 21.75 9.88296 21.75 7.46667C21.75 3.34294 18.5041 0 14.5 0C10.4959 0 7.25 3.34294 7.25 7.46667C7.25 9.88296 8.36444 12.0312 10.0928 13.3959C9.21991 13.0123 8.25903 12.8 7.25 12.8C3.24594 12.8 0 16.1429 0 20.2667C0 24.3904 3.24594 27.7333 7.25 27.7333C9.56157 27.7333 11.6205 26.6192 12.948 24.8839C12.9059 27.88 12.5353 30.0104 11.4966 31.3619C11.3154 31.5977 11.4664 32 11.7584 32H17.2416Z" fill="black" fill-opacity="0.8"/>
</svg>
