<svg width="29" height="32" viewBox="0 0 29 32" fill="none" xmlns="http://www.w3.org/2000/svg">
<g clip-path="url(#clip0_39:184)">
<path fill-rule="evenodd" clip-rule="evenodd" d="M6.74857 2.11786C5.23517 2.47777 3.81206 3.36643 2.44612 4.80431C1.67144 5.61987 1.26002 6.20126 0.883599 7.01222C-0.444456 9.87349 -0.265064 13.4521 1.35162 16.3495C1.91503 17.3593 1.98797 17.4465 6.93153 23.0291C8.33666 24.6159 10.6044 27.1879 11.9711 28.7448C12.514 29.3634 13.0206 29.9384 13.4353 30.4074C14.1302 31.1934 14.8669 31.1982 15.5683 30.4176C15.8527 30.1012 16.1756 29.7385 16.5143 29.3524C17.6031 28.1115 19.9881 25.4085 21.8143 23.3458C26.1629 18.434 26.7206 17.7891 27.1329 17.1949C28.5128 15.2065 29.1622 12.799 28.9655 10.4011C28.7699 8.01697 27.9655 6.16816 26.4688 4.66253C25.2745 3.46112 24.2328 2.76706 22.9461 2.31551C22.1844 2.04818 21.6034 1.97041 20.6612 2.00948C19.6999 2.04936 19.1402 2.20552 18.2595 2.67953C16.8216 3.45334 15.5828 4.90012 14.7805 6.74258C14.6721 6.99149 14.3029 6.99202 14.1937 6.74344L14.1789 6.70973C13.3522 4.82802 12.1918 3.47088 10.7289 2.67486C9.78263 2.15992 9.36208 2.05067 8.20508 2.01937C7.42229 1.99816 7.18415 2.01427 6.74857 2.11786Z" fill="#F15757"/>
</g>
<defs>
<clipPath id="clip0_39:184">
<rect width="29" height="32" fill="white"/>
</clipPath>
</defs>
</svg>
