<svg width="29" height="32" viewBox="0 0 29 32" fill="none" xmlns="http://www.w3.org/2000/svg">
<path d="M17.636 31.3565C16.5372 29.9759 16.1544 27.7892 16.1189 24.7054C16.1162 24.4727 16.3644 24.3187 16.5811 24.4065C28.3249 29.1688 32.8295 17.5533 25.3141 10.4874L16.1221 0.806718C15.0407 -0.268915 13.9593 -0.268903 12.8779 0.806723L3.6859 10.4874C-3.82954 17.5533 0.675092 29.1688 12.4189 24.4065C12.6355 24.3187 12.8838 24.4727 12.8811 24.7054C12.8456 27.7892 12.4628 29.9759 11.364 31.3565C11.1748 31.5943 11.3326 32 11.6374 32H17.3626C17.6674 32 17.8251 31.5943 17.636 31.3565Z" fill="black" fill-opacity="0.8"/>
</svg>
